<svg width="1920" height="1134" viewBox="0 0 1920 1134" fill="none" xmlns="http://www.w3.org/2000/svg">
<path d="M1683.74 0.000623422L1690.67 0.000623725C1600.4 58.68 1397.51 101.928 1170.36 110.774C1108.85 113.133 1069.18 126.205 1055.49 148.616C1045.44 165.128 1049.6 185.868 1067.79 208.671C1085.98 231.376 1116.13 253.983 1155.12 274.034C1170.02 281.701 1187 291.432 1205.02 301.85C1288.7 350.111 1403.4 416.064 1505.11 385.791C1560.73 369.179 1571.12 337.825 1582.04 304.701C1593.13 271.086 1604.56 236.291 1667.8 219.581C1686.86 214.569 1708.87 211.03 1733.82 208.966L1733.82 214.962C1710.43 216.928 1689.98 220.269 1672.13 224.987C1613.74 240.419 1603.18 272.265 1592.09 305.88C1581.17 339.004 1569.91 373.209 1509.79 391.098C1430.43 414.688 1346.23 384.906 1273.11 347.752C1215.07 321.509 1161.87 288.68 1122.72 269.513C987.917 203.658 946.334 104.188 1125.31 91.8039C1301.52 79.5176 1462.14 45.3125 1563.5 0.0988848L1683.74 0.000623422Z" fill="#07061C"/>
<path d="M1372.13 1069.73C1351.83 1071.4 1330.66 1074.94 1308.27 1078.67C1269.93 1085.06 1230.72 1091.55 1192.72 1089.38C1158.88 1091.25 1125.57 1089.78 1095.03 1080.24C1058.59 1068.84 1046.62 1041.23 1061.72 1020.89C1109.08 957.108 1278.6 953.766 1302.03 881.044L1302.03 880.946C1316.6 850.579 1286.41 815.888 1253.27 793.187C1196.88 754.762 1094.16 723.118 1001.33 716.632C997.171 716.73 992.833 716.73 988.669 716.829C951.537 717.418 910.415 718.008 869.641 716.435C800.236 716.239 728.056 712.406 672.88 693.046C585.778 662.582 610.069 584.356 691.966 598.212C695.783 596.542 699.948 595.067 704.285 594.085C721.289 590.056 750.266 589.171 790.52 608.334C834.245 629.07 875.019 638.406 918.744 637.915C957.263 637.423 998.906 629.267 1053.73 611.578C1102.32 595.854 1148.99 572.661 1198.27 547.994C1274.44 510.061 1353.39 470.752 1442.57 459.647C1497.23 452.866 1559.86 453.848 1628.92 462.693C1662.76 467.017 1698.33 473.208 1735.11 481.267L1735.11 487.556C1697.46 479.203 1661.19 472.815 1626.67 468.393C1559.17 459.745 1497.92 458.762 1444.83 465.346C1358.25 476.156 1280.34 514.876 1205.04 552.417C1155.24 577.182 1108.22 600.669 1058.77 616.688C1002.38 634.967 959.172 643.32 918.918 643.811C872.417 644.401 829.56 634.573 783.753 612.855C754.95 599.195 728.924 594.674 708.276 599.588C689.884 604.01 677.565 615.705 675.483 631.036C673.054 648.43 685.373 673.883 727.536 688.722C799.543 713.979 904.343 712.308 988.495 711.03C997.17 710.932 1005.67 710.736 1014 710.637C1114.64 709.36 1241.82 743.264 1309.49 789.453C1343.5 812.645 1374.38 848.515 1359.29 879.865L1359.29 879.963C1343.67 911.312 1286.24 932.441 1230.54 952.783C1190.46 967.525 1152.64 981.381 1130.77 998.481C1109.78 1014.79 1101.45 1031.8 1107.18 1046.24C1112.03 1058.43 1126.26 1068.35 1149.69 1075.72C1198.1 1090.96 1252.75 1081.82 1305.5 1073.07C1328.23 1069.24 1349.74 1065.7 1370.74 1063.93C1431.12 1058.92 1502.26 1062.75 1570.97 1074.64C1635.86 1085.94 1693.29 1103.93 1734.94 1125.84L1734.94 1134C1693.99 1111 1634.99 1092.04 1567.85 1080.34C1501.56 1068.75 1430.25 1064.91 1372.13 1069.73Z" fill="#07061C"/>
<path d="M933.553 87.7025C838.689 115.724 748.854 142.172 718.158 173.733C699.254 193.201 695.612 209.916 706.885 224.86C737.755 265.074 874.588 284.639 995.293 301.944C1086.34 314.922 1164.9 326.229 1196.29 344.517C1233.93 366.443 1248.67 389.843 1240.17 414.03C1216.06 483.248 1011.42 538.701 949.162 554.039C850.482 578.423 779.898 574.392 696.826 539.783C686.421 535.456 675.495 530.344 663.875 524.936C612.888 501.241 549.24 471.843 483.512 485.411C432.004 496.03 378.762 489.442 329.683 466.337C288.754 446.968 252.508 416.586 230.483 382.96C222.505 370.769 215.568 358.085 208.804 345.795C183.831 300.174 160.071 257.11 84.8043 229.678C60.5247 220.829 31.5625 212.079 -0.00108267 204.311L-0.00108239 197.92C33.8172 206.081 64.687 215.323 90.5275 224.762C168.916 253.373 194.237 299.486 218.863 344.124C225.627 356.315 232.39 368.901 240.368 380.994C261.699 413.735 296.732 443.231 336.446 461.912C368.53 477.054 419.517 492.49 480.043 480.003C551.322 465.255 617.397 495.833 670.465 520.512C681.912 525.821 692.837 530.835 703.07 535.162C782.499 568.296 850.309 572.13 944.999 548.73C980.378 539.979 1049.06 521.495 1111.84 495.931C1180.86 467.713 1220.57 439.79 1229.94 413.047C1237.57 390.826 1223.87 369.196 1188.84 348.745C1159.53 331.637 1078.36 320.035 992.692 307.745C869.559 290.145 730.124 270.186 697.347 227.318C684.686 210.8 688.675 191.923 708.966 170.98C741.223 137.846 832.272 111.004 928.697 82.5897C1014.72 57.2229 1102.82 31.1678 1150.68 5.70215e-05L1164.21 5.76128e-05C1116.52 33.7242 1024.08 61.0575 933.553 87.7025Z" fill="#07061C"/>
<path d="M736.655 53.1737C680.283 68.998 627.033 84.0359 601.535 103.89C561.641 134.949 546.03 170.529 557.652 204.143C569.447 238.445 608.821 268.914 668.315 289.751C692.251 298.106 738.91 306.165 788.518 314.716C887.733 331.818 1000.13 351.181 1015.05 384.795C1019.9 395.803 1017.65 405.731 1008.28 414.282C983.306 437.182 912.71 445.93 856.165 452.908C831.708 455.955 810.546 458.511 797.537 461.754C727.115 479.151 676.641 476.203 617.32 451.532C608.474 447.797 599.801 443.669 590.434 439.246C566.324 427.747 541.521 415.756 512.901 412.316C498.851 410.645 485.495 412.119 471.272 413.692C454.274 415.559 436.582 417.525 418.542 413.495C346.733 397.769 320.368 341.057 299.207 295.452C293.309 282.773 287.759 270.782 281.861 261.15C243.355 198.442 190.798 112.638 78.4008 71.6518C56.5457 63.6905 29.487 55.9257 -4.25292e-05 49.4387L-4.22542e-05 43.1485C31.7419 49.9303 60.8821 58.1864 84.1248 66.7374C199.471 108.804 252.895 195.789 291.748 259.282C297.819 269.209 303.37 281.299 309.44 294.076C330.081 338.404 355.579 393.543 422.532 408.188C437.969 411.529 453.233 409.858 469.538 408.089C484.108 406.517 499.372 404.846 515.329 406.713C546.551 410.448 572.395 422.833 597.373 434.824C606.392 439.148 615.065 443.276 623.564 446.815C679.416 470.109 726.942 472.762 793.548 456.348C807.424 452.908 829.106 450.255 854.083 447.109C908.894 440.328 976.888 431.875 999.61 411.136C1007.59 403.863 1009.32 395.804 1005.16 386.171C991.631 355.702 877.499 336.045 785.569 320.319C733.186 311.276 687.915 303.512 662.938 294.764C601.015 272.944 559.907 241.197 547.592 205.224C535.45 169.939 551.581 132.786 593.21 100.352C620.268 79.3182 674.559 63.9853 732.146 47.8662C782.967 33.6145 834.83 18.9698 868.133 0.000313904L882.703 0.000314541C848.533 21.7218 791.987 37.6444 736.655 53.1737Z" fill="#07061C"/>
<path d="M553.777 42.673L549.446 45.6228C495.571 83.0843 434.593 125.462 462.83 176.394C469.759 188.979 481.365 201.27 492.452 213.069C516.878 239.125 542.17 266.066 521.036 298.611C508.216 318.374 490.027 323.585 476.861 324.568C455.727 326.043 432.86 317.587 412.765 300.774C382.277 275.308 368.591 244.828 355.426 215.33C349.016 201.073 342.433 186.325 334.118 172.658C300.338 117.596 255.817 44.7378 169.374 0.000316308L184.445 0.000316967C267.25 45.9177 310.732 116.809 343.819 170.691C352.307 184.653 359.063 199.5 365.473 213.855C378.465 242.861 391.978 272.752 421.427 297.431C439.097 312.081 458.845 319.849 475.649 318.669C490.2 317.686 502.5 310.016 511.335 296.546C530.91 266.459 507.697 241.878 483.271 215.822C472.011 203.728 460.231 191.241 452.955 178.164L452.955 178.065C423.159 124.085 486.043 80.4295 541.477 41.7881L545.808 38.8384C547.194 37.8552 549.273 36.4786 551.698 34.8071C570.234 22.1233 586.344 10.521 599.856 0.000335125L612.849 0.000335693C595.872 13.4708 576.816 26.9411 559.666 38.6417C557.068 40.3132 555.162 41.6898 553.777 42.673Z" fill="#07061C"/>
<path d="M1012.93 967.298C965.042 978.192 921.584 981.948 890.567 977.983C846.415 972.332 822.111 953.071 798.748 934.388C790.254 927.727 781.417 920.71 771.904 914.583C747.004 898.579 717.151 890.257 685.493 881.407C652.512 872.179 618.443 862.718 590.796 843.87L590.335 843.442C579.506 833.319 572.186 823.902 568.357 815.467C541.805 780.919 540.656 741.096 600.976 727.838C676.996 711.174 762.202 770.415 827.77 785.73C916.758 806.58 1004.68 777.66 1095.94 792.369C1161.22 802.877 1203.54 843.623 1199.07 860.291C1198.56 862.297 1197.68 864.364 1196.68 866.36C1196.59 867.61 1196.39 868.788 1196.06 870.033C1191.55 887.117 1171.25 905.517 1137.24 923.331C1103.98 940.884 1058.69 956.845 1012.93 967.298ZM690.282 876.087C721.459 884.787 753.597 893.787 779.909 910.658C789.775 917.002 798.73 924.09 807.331 930.962C830.704 949.506 852.919 967.05 892.935 972.192C952.046 979.779 1060.88 955.432 1130.29 919.07C1162.52 902.19 1181.64 884.947 1185.8 869.247C1190.29 852.44 1163.71 839.321 1107.29 830.194C1068.21 823.891 1027.3 821.095 987.596 818.466C934.712 814.845 880.113 811.185 828.672 799.178C809.957 794.793 791.721 788.818 774.21 782.999C728.992 768 686.166 753.89 633.823 765.379C617.496 768.979 604.306 773.345 595.008 778.215C568.26 792.227 569.541 812.571 599.017 840.366C625.399 858.004 658.38 867.232 690.282 876.087Z" fill="#07061C"/>
<path d="M1451.39 266.278C1446.88 267.848 1441.86 269.024 1436.48 269.907C1402.49 275.4 1362.42 269.711 1326.7 254.41C1285.07 236.56 1258.02 209.49 1258.02 185.46C1258.02 182.91 1258.37 180.262 1258.89 177.81C1261.49 167.217 1271.2 158.782 1287.85 152.603C1321.15 140.343 1377.86 140.049 1414.45 145.933C1435.61 149.366 1454.86 159.469 1468.56 174.377C1481.05 187.912 1488.16 204.586 1488.16 220.18C1487.99 241.66 1474.63 258.53 1451.39 266.278ZM1411.68 151.622C1382.37 146.816 1326.35 145.541 1293.57 157.605C1279.53 162.803 1271.37 169.865 1269.29 178.692C1268.77 180.948 1268.43 183.204 1268.43 185.558C1268.43 207.822 1293.75 233.127 1332.94 249.801C1366.07 263.924 1402.83 269.221 1433.7 264.317C1438.21 263.63 1442.38 262.551 1446.19 261.276C1466.31 254.508 1477.76 239.6 1477.76 220.18C1477.58 192.326 1452.43 158.194 1411.68 151.622Z" fill="#07061C"/>
<path d="M1466.77 595.654C1471.84 594.797 1477.23 594.395 1482.83 594.329C1518.18 593.998 1554.27 605.385 1581.77 625.442C1613.8 648.833 1627.55 679.014 1616.55 702.281C1615.38 704.75 1613.84 707.263 1612.21 709.561C1604.85 719.436 1591.61 726.178 1572.7 729.718C1534.93 736.703 1480.02 728.667 1447.37 717.6C1428.51 711.172 1414.54 698.565 1408.13 682.12C1402.26 667.182 1403.02 649.994 1410.16 634.895C1420.16 614.122 1440.77 599.747 1466.77 595.654ZM1452.66 712.499C1478.76 721.453 1532.29 730.907 1569.46 724.035C1585.41 721.063 1596.52 715.421 1602.57 707.18C1604.1 705.072 1605.47 702.938 1606.54 700.659C1616.73 679.101 1603.86 650.884 1573.63 628.989C1548.1 610.453 1515.01 599.93 1482.95 600.149C1478.28 600.152 1473.77 600.587 1469.5 601.261C1446.97 604.862 1429.1 617.618 1420.21 636.421C1407.63 663.418 1416.3 700.156 1452.66 712.499Z" fill="#07061C"/>
<path d="M1196.58 682.537C1189.21 680.127 1180.78 675.234 1182.54 665.792C1184.18 656.958 1195.33 643.913 1206.38 637.882C1222.29 629.174 1254.06 631.227 1275.42 638.216C1290.63 643.197 1299.54 650.194 1299.54 657.428C1299.58 658.833 1299.23 660.297 1298.57 661.75C1295.22 669.374 1281.97 676.446 1262.42 681.179C1242.3 686.001 1214.13 688.281 1196.58 682.537ZM1290.44 660.574C1290.87 659.509 1291.11 658.473 1291.15 657.467C1291.04 651.956 1283.8 646.527 1271.17 642.39C1247.6 634.678 1222.34 635.87 1212.17 641.354C1202.68 646.502 1192.44 658.642 1190.99 666.331C1189.97 671.839 1193.22 675.873 1200.83 678.363C1213.71 682.581 1237.66 681.884 1259.28 676.717C1276.02 672.644 1287.71 666.635 1290.44 660.574Z" fill="#07061C"/>
<path d="M1779.51 866.88C1785.56 840.751 1851.83 813.443 1880.03 802.933C1893.35 798.021 1906.68 793.503 1920 789.475L1920 796.155C1908.58 799.691 1896.99 803.62 1885.74 807.844C1829.51 828.865 1793.52 851.163 1789.72 867.666C1786.6 880.927 1805.11 890.357 1844.74 895.661C1866.54 898.608 1893.18 897.135 1920 893.991L1920 899.983C1892.66 903.127 1865.33 904.404 1842.31 901.359C1811 897.233 1774.66 887.803 1779.51 866.88Z" fill="#07061C"/>
<path d="M1378.29 937.473C1377.6 921.342 1389.57 905.31 1414.73 888.196C1454.29 861.442 1511.89 846 1567.42 831.049C1570.89 830.164 1574.19 829.279 1577.48 828.295C1698.77 795.64 1797.32 764.756 1883.73 720.101C1887.55 718.134 1891.89 715.97 1896.57 713.511C1903.51 709.97 1911.5 705.938 1920 701.512L1920 709.479C1914.1 712.528 1908.55 715.282 1903.51 717.839C1898.83 720.2 1894.49 722.462 1890.67 724.331C1803.22 769.477 1703.97 800.558 1581.82 833.508C1578.52 834.394 1575.05 835.279 1571.58 836.262C1516.93 850.918 1460.53 866.065 1422.36 891.835C1398.94 907.769 1387.66 922.621 1388.35 937.178C1389.05 956.26 1397.9 972.39 1413.86 983.8C1431.21 996.193 1455.68 1002.39 1486.74 1002C1541.74 1001.41 1591.54 987.538 1639.77 974.062C1687.84 960.686 1737.29 946.916 1793.33 945.44C1840.7 944.26 1884.43 947.801 1920 955.473L1920 961.768C1885.3 953.899 1841.57 950.161 1793.85 951.342C1740.06 952.719 1691.48 966.292 1644.46 979.374C1595.35 993.046 1544.52 1007.21 1487.08 1007.9C1421.84 1008.78 1380.02 981.734 1378.29 937.473Z" fill="#07061C"/>
</svg>
